<svg xmlns="http://www.w3.org/2000/svg" xmlns:xlink="http://www.w3.org/1999/xlink" style="margin:auto;background:#4e0a7b;display:block;z-index:1;position:relative" width="100%" height="100%" preserveAspectRatio="xMidYMid" viewBox="0 0 1084 322">
<defs>
  <pattern id="pid-0.05915435513954259" x="0" y="0" width="100%" height="100%" patternUnits="userSpaceOnUse">
    <g transform="scale(0.75)"><defs>
  <filter id="pat-0.00885441644779994" x="-100%" y="-100%" width="300%" height="300%" color-interpolation-filters="sRGB">
    <feGaussianBlur in="SourceGraphic" stdDeviation="10.07"></feGaussianBlur>
    <feComponentTransfer result="cutoff">
      <feFuncA type="linear" slope="60" intercept="-40"></feFuncA>
    </feComponentTransfer>
  </filter>
</defs><g style="isolation:isolate" filter="url(#pat-0.00885441644779994)"><g>
  <circle cx="-24.744814618664464" cy="149.8052807800995" r="16.288110220149164" fill="#ff0f08"></circle> <circle cx="231.25518538133554" cy="149.8052807800995" r="16.288110220149164" fill="#ff0f08"></circle> <circle cx="487.25518538133554" cy="149.8052807800995" r="16.288110220149164" fill="#ff0f08"></circle> <circle cx="-24.744814618664464" cy="405.8052807800995" r="16.288110220149164" fill="#ff0f08"></circle> <circle cx="231.25518538133554" cy="405.8052807800995" r="16.288110220149164" fill="#ff0f08"></circle> <circle cx="487.25518538133554" cy="405.8052807800995" r="16.288110220149164" fill="#ff0f08"></circle> <circle cx="-24.744814618664464" cy="661.8052807800996" r="16.288110220149164" fill="#ff0f08"></circle> <circle cx="231.25518538133554" cy="661.8052807800996" r="16.288110220149164" fill="#ff0f08"></circle> <circle cx="487.25518538133554" cy="661.8052807800996" r="16.288110220149164" fill="#ff0f08"></circle> <circle cx="-217.91773045564753" cy="186.79557001207382" r="28.873605116793172" fill="#ff0f08"></circle> <circle cx="38.08226954435247" cy="186.79557001207382" r="28.873605116793172" fill="#ff0f08"></circle> <circle cx="294.08226954435247" cy="186.79557001207382" r="28.873605116793172" fill="#ff0f08"></circle> <circle cx="-217.91773045564753" cy="442.7955700120738" r="28.873605116793172" fill="#ff0f08"></circle> <circle cx="38.08226954435247" cy="442.7955700120738" r="28.873605116793172" fill="#ff0f08"></circle> <circle cx="294.08226954435247" cy="442.7955700120738" r="28.873605116793172" fill="#ff0f08"></circle> <circle cx="-217.91773045564753" cy="698.7955700120738" r="28.873605116793172" fill="#ff0f08"></circle> <circle cx="38.08226954435247" cy="698.7955700120738" r="28.873605116793172" fill="#ff0f08"></circle> <circle cx="294.08226954435247" cy="698.7955700120738" r="28.873605116793172" fill="#ff0f08"></circle> <circle cx="-189.0891521966555" cy="-6.045962665344405" r="32.06887783790775" fill="#ff0f08"></circle> <circle cx="66.9108478033445" cy="-6.045962665344405" r="32.06887783790775" fill="#ff0f08"></circle> <circle cx="322.9108478033445" cy="-6.045962665344405" r="32.06887783790775" fill="#ff0f08"></circle> <circle cx="-189.0891521966555" cy="249.9540373346556" r="32.06887783790775" fill="#ff0f08"></circle> <circle cx="66.9108478033445" cy="249.9540373346556" r="32.06887783790775" fill="#ff0f08"></circle> <circle cx="322.9108478033445" cy="249.9540373346556" r="32.06887783790775" fill="#ff0f08"></circle> <circle cx="-189.0891521966555" cy="505.9540373346556" r="32.06887783790775" fill="#ff0f08"></circle> <circle cx="66.9108478033445" cy="505.9540373346556" r="32.06887783790775" fill="#ff0f08"></circle> <circle cx="322.9108478033445" cy="505.9540373346556" r="32.06887783790775" fill="#ff0f08"></circle> <circle cx="-189.0891521966555" cy="761.9540373346556" r="32.06887783790775" fill="#ff0f08"></circle> <circle cx="66.9108478033445" cy="761.9540373346556" r="32.06887783790775" fill="#ff0f08"></circle> <circle cx="322.9108478033445" cy="761.9540373346556" r="32.06887783790775" fill="#ff0f08"></circle> 
  <animateTransform attributeName="transform" type="translate" dur="33.333333333333336s" repeatCount="indefinite" keyTimes="0;1" values="0 0;0 -256"></animateTransform>
</g><g>
  <circle cx="-215.09043342780257" cy="88.48310480702457" r="25.502274212183504" fill="#ffdf84"></circle> <circle cx="40.909566572197434" cy="88.48310480702457" r="25.502274212183504" fill="#ffdf84"></circle> <circle cx="296.90956657219743" cy="88.48310480702457" r="25.502274212183504" fill="#ffdf84"></circle> <circle cx="-215.09043342780257" cy="344.4831048070246" r="25.502274212183504" fill="#ffdf84"></circle> <circle cx="40.909566572197434" cy="344.4831048070246" r="25.502274212183504" fill="#ffdf84"></circle> <circle cx="296.90956657219743" cy="344.4831048070246" r="25.502274212183504" fill="#ffdf84"></circle> <circle cx="-215.09043342780257" cy="600.4831048070246" r="25.502274212183504" fill="#ffdf84"></circle> <circle cx="40.909566572197434" cy="600.4831048070246" r="25.502274212183504" fill="#ffdf84"></circle> <circle cx="296.90956657219743" cy="600.4831048070246" r="25.502274212183504" fill="#ffdf84"></circle> <circle cx="-177.12496273226566" cy="11.27067674010135" r="31.05296190798105" fill="#ffdf84"></circle> <circle cx="78.87503726773434" cy="11.27067674010135" r="31.05296190798105" fill="#ffdf84"></circle> <circle cx="334.87503726773434" cy="11.27067674010135" r="31.05296190798105" fill="#ffdf84"></circle> <circle cx="-177.12496273226566" cy="267.27067674010135" r="31.05296190798105" fill="#ffdf84"></circle> <circle cx="78.87503726773434" cy="267.27067674010135" r="31.05296190798105" fill="#ffdf84"></circle> <circle cx="334.87503726773434" cy="267.27067674010135" r="31.05296190798105" fill="#ffdf84"></circle> <circle cx="-177.12496273226566" cy="523.2706767401014" r="31.05296190798105" fill="#ffdf84"></circle> <circle cx="78.87503726773434" cy="523.2706767401014" r="31.05296190798105" fill="#ffdf84"></circle> <circle cx="334.87503726773434" cy="523.2706767401014" r="31.05296190798105" fill="#ffdf84"></circle> <circle cx="-125.24015715880381" cy="78.77741057403705" r="28.482363393985725" fill="#ffdf84"></circle> <circle cx="130.7598428411962" cy="78.77741057403705" r="28.482363393985725" fill="#ffdf84"></circle> <circle cx="386.7598428411962" cy="78.77741057403705" r="28.482363393985725" fill="#ffdf84"></circle> <circle cx="-125.24015715880381" cy="334.77741057403705" r="28.482363393985725" fill="#ffdf84"></circle> <circle cx="130.7598428411962" cy="334.77741057403705" r="28.482363393985725" fill="#ffdf84"></circle> <circle cx="386.7598428411962" cy="334.77741057403705" r="28.482363393985725" fill="#ffdf84"></circle> <circle cx="-125.24015715880381" cy="590.777410574037" r="28.482363393985725" fill="#ffdf84"></circle> <circle cx="130.7598428411962" cy="590.777410574037" r="28.482363393985725" fill="#ffdf84"></circle> <circle cx="386.7598428411962" cy="590.777410574037" r="28.482363393985725" fill="#ffdf84"></circle> 
  <animateTransform attributeName="transform" type="translate" dur="16.666666666666668s" repeatCount="indefinite" keyTimes="0;1" values="0 0;0 -256"></animateTransform>
</g><g>
  <circle cx="-43.39873995178601" cy="72.78662185893074" r="25.898233072711605" fill="#31dfd6"></circle> <circle cx="212.601260048214" cy="72.78662185893074" r="25.898233072711605" fill="#31dfd6"></circle> <circle cx="468.601260048214" cy="72.78662185893074" r="25.898233072711605" fill="#31dfd6"></circle> <circle cx="-43.39873995178601" cy="328.78662185893074" r="25.898233072711605" fill="#31dfd6"></circle> <circle cx="212.601260048214" cy="328.78662185893074" r="25.898233072711605" fill="#31dfd6"></circle> <circle cx="468.601260048214" cy="328.78662185893074" r="25.898233072711605" fill="#31dfd6"></circle> <circle cx="-43.39873995178601" cy="584.7866218589307" r="25.898233072711605" fill="#31dfd6"></circle> <circle cx="212.601260048214" cy="584.7866218589307" r="25.898233072711605" fill="#31dfd6"></circle> <circle cx="468.601260048214" cy="584.7866218589307" r="25.898233072711605" fill="#31dfd6"></circle> <circle cx="-242.98395024724846" cy="181.91013595095137" r="21.49008710563698" fill="#31dfd6"></circle> <circle cx="13.016049752751542" cy="181.91013595095137" r="21.49008710563698" fill="#31dfd6"></circle> <circle cx="269.01604975275154" cy="181.91013595095137" r="21.49008710563698" fill="#31dfd6"></circle> <circle cx="-242.98395024724846" cy="437.91013595095137" r="21.49008710563698" fill="#31dfd6"></circle> <circle cx="13.016049752751542" cy="437.91013595095137" r="21.49008710563698" fill="#31dfd6"></circle> <circle cx="269.01604975275154" cy="437.91013595095137" r="21.49008710563698" fill="#31dfd6"></circle> <circle cx="-242.98395024724846" cy="693.9101359509514" r="21.49008710563698" fill="#31dfd6"></circle> <circle cx="13.016049752751542" cy="693.9101359509514" r="21.49008710563698" fill="#31dfd6"></circle> <circle cx="269.01604975275154" cy="693.9101359509514" r="21.49008710563698" fill="#31dfd6"></circle> 
  <animateTransform attributeName="transform" type="translate" dur="11.11111111111111s" repeatCount="indefinite" keyTimes="0;1" values="0 0;0 -256"></animateTransform>
</g></g></g>
  </pattern>
</defs>
<rect x="0" y="0" width="100%" height="100vh" fill="url(#pid-0.05915435513954259)"></rect>
</svg>